<svg xmlns="http://www.w3.org/2000/svg" xmlns:xlink="http://www.w3.org/1999/xlink" viewBox="0 0 2540 2040" width="100%" role="img" aria-label="Studi-Tools – Die wichtigsten Plattformen der TH Köln – Campus Gummersbach"><title>Studi-Tools – Die wichtigsten Plattformen der TH Köln – Campus Gummersbach</title><style>.tool, .node { cursor: pointer; }
.tool rect:first-of-type, .node circle { transition: transform .12s ease, filter .12s ease; }
.tool:hover rect:first-of-type, .node:hover circle:first-of-type { filter: brightness(.96); }
.node:focus-visible circle, .tool:focus-visible rect:first-of-type {
  outline: 3px solid #111827; outline-offset: 3px;
}
a { text-decoration: none; }
text { font-family: Helvetica Neue, Helvetica, Arial, sans-serif; }</style><rect width="2540" height="2040" fill="#FFFFFF"/><ellipse cx="1270" cy="1020" rx="650" ry="510" fill="none" stroke="#EEEFF2" stroke-width="1.4"/><g class="edges"><line x1="1270" y1="869" x2="1270" y2="578" stroke="#D0344D" stroke-width="5" stroke-linecap="round"/><circle cx="1270" cy="869" r="6.5" fill="#C8102E"/><line x1="1270" y1="442" x2="1270" y2="419.2" stroke="#D34058" stroke-width="3" stroke-linecap="round"/><line x1="1353.95" y1="894.49" x2="1539.82" y2="616.63" stroke="#CF93BC" stroke-width="3" stroke-linecap="round"/><circle cx="1353.95" cy="894.49" r="4.5" fill="#BE6CA4"/><line x1="1604.32" y1="520.21" x2="1632.59" y2="477.94" stroke="#D8A7C9" stroke-width="1.6" stroke-linecap="round"/><line x1="1402.78" y1="948.09" x2="1753.94" y2="757.91" stroke="#DB938E" stroke-width="3" stroke-linecap="round"/><circle cx="1402.78" cy="948.09" r="4.5" fill="#CE6B65"/><line x1="1855.94" y1="702.67" x2="1975.9" y2="637.7" stroke="#E2A6A3" stroke-width="1.6" stroke-linecap="round"/><line x1="1420.32" y1="1005.68" x2="1857.52" y2="964.03" stroke="#E1AD7E" stroke-width="3" stroke-linecap="round"/><circle cx="1420.32" cy="1005.68" r="4.5" fill="#D68F4F"/><line x1="1973" y1="953.03" x2="2152.42" y2="935.93" stroke="#E7BC95" stroke-width="1.6" stroke-linecap="round"/><line x1="1414.73" y1="1063.07" x2="1822.17" y2="1184.31" stroke="#A4A2DF" stroke-width="3" stroke-linecap="round"/><circle cx="1414.73" cy="1063.07" r="4.5" fill="#8380D3"/><line x1="1933.35" y1="1217.39" x2="2092.42" y2="1264.72" stroke="#B5B3E4" stroke-width="1.6" stroke-linecap="round"/><line x1="1383.04" y1="1120.11" x2="1657.61" y2="1363.29" stroke="#8CBFA3" stroke-width="3" stroke-linecap="round"/><circle cx="1383.04" cy="1120.11" r="4.5" fill="#62A881"/><line x1="1744.45" y1="1440.19" x2="1809.65" y2="1497.94" stroke="#A1CBB3" stroke-width="1.6" stroke-linecap="round"/><line x1="1315.25" y1="1164.06" x2="1408.17" y2="1459.85" stroke="#7AB7C7" stroke-width="3" stroke-linecap="round"/><circle cx="1315.25" cy="1164.06" r="4.5" fill="#4A9DB2"/><line x1="1442.94" y1="1570.51" x2="1470.29" y2="1657.59" stroke="#93C4D1" stroke-width="1.6" stroke-linecap="round"/><line x1="1224.75" y1="1164.06" x2="1131.83" y2="1459.85" stroke="#C496C0" stroke-width="3" stroke-linecap="round"/><circle cx="1224.75" cy="1164.06" r="4.5" fill="#AE70A9"/><line x1="1097.06" y1="1570.51" x2="1066.64" y2="1667.34" stroke="#CEA9CB" stroke-width="1.6" stroke-linecap="round"/><line x1="1156.96" y1="1120.11" x2="882.39" y2="1363.29" stroke="#D893A3" stroke-width="3" stroke-linecap="round"/><circle cx="1156.96" cy="1120.11" r="4.5" fill="#CA6B81"/><line x1="795.55" y1="1440.19" x2="730.35" y2="1497.94" stroke="#DFA6B3" stroke-width="1.6" stroke-linecap="round"/><line x1="1125.27" y1="1063.07" x2="717.83" y2="1184.31" stroke="#D8B37E" stroke-width="3" stroke-linecap="round"/><circle cx="1125.27" cy="1063.07" r="4.5" fill="#CA984F"/><line x1="606.65" y1="1217.39" x2="447.58" y2="1264.72" stroke="#DFC195" stroke-width="1.6" stroke-linecap="round"/><line x1="1119.68" y1="1005.68" x2="682.48" y2="964.03" stroke="#8DA7DF" stroke-width="3" stroke-linecap="round"/><circle cx="1119.68" cy="1005.68" r="4.5" fill="#6387D3"/><line x1="567" y1="953.03" x2="387.58" y2="935.93" stroke="#A1B7E4" stroke-width="1.6" stroke-linecap="round"/><line x1="1137.22" y1="948.09" x2="786.06" y2="757.91" stroke="#94B993" stroke-width="3" stroke-linecap="round"/><circle cx="1137.22" cy="948.09" r="4.5" fill="#6E9F6B"/><line x1="684.06" y1="702.67" x2="564.1" y2="637.7" stroke="#A8C5A6" stroke-width="1.6" stroke-linecap="round"/><line x1="1186.05" y1="894.49" x2="1000.18" y2="616.63" stroke="#7BBFC0" stroke-width="3" stroke-linecap="round"/><circle cx="1186.05" cy="894.49" r="4.5" fill="#4BA8AA"/><line x1="935.68" y1="520.21" x2="882.16" y2="440.19" stroke="#93CBCC" stroke-width="1.6" stroke-linecap="round"/></g><g class="cards"><a href="https://www.th-koeln.de/informatik-und-ingenieurwissenschaften/informatik-und-ingenieurwissenschaften/termine-und-fristen_19440.php" target="_blank" rel="noopener" class="tool"><title>Fristen &amp; Termine</title><rect x="1120" y="40.8" width="300" height="378.4" rx="16" fill="#FDEBEE" stroke="#C8102E" stroke-width="3"/><text x="1138" y="79.7" font-size="22" fill="#8E0B20" font-weight="700">Fristen &amp; Termine</text><text x="1138" y="108.25" font-size="14.5" fill="#4B5563">Semesterpläne, Vorlesungs- und</text><text x="1138" y="127.75" font-size="14.5" fill="#4B5563">Prüfungszeiten der Fakultät. Die</text><text x="1138" y="147.25" font-size="14.5" fill="#4B5563">Anmeldefristen stehen erst im PDF unter</text><text x="1138" y="166.75" font-size="14.5" fill="#4B5563">»Prüfungsfristen« – dort zählt die Zeile</text><text x="1138" y="186.25" font-size="14.5" fill="#4B5563">»Prüfungsanmeldungen«.</text><rect x="1138" y="204.7" width="264" height="78.5" rx="8" fill="#FFFFFF" stroke="#E17C8C" stroke-width="1"/><rect x="1138" y="204.7" width="5" height="78.5" rx="2.5" fill="#C8102E"/><text x="1155" y="227.75" font-size="14.5" fill="#8E0B20" font-weight="700">Ohne Anmeldung in dieser Frist ist</text><text x="1155" y="247.25" font-size="14.5" fill="#8E0B20" font-weight="700">die Teilnahme an Prüfungen nicht</text><text x="1155" y="266.75" font-size="14.5" fill="#8E0B20" font-weight="700">möglich.</text><rect x="1138" y="295.2" width="102.2" height="22" rx="11" fill="#FFFFFF" stroke="#E693A1" stroke-width="1"/><text x="1149" y="310.2" font-size="13" fill="#8E0B20">Semesterplan</text><rect x="1246.2" y="295.2" width="138.34" height="22" rx="11" fill="#FFFFFF" stroke="#E693A1" stroke-width="1"/><text x="1257.2" y="310.2" font-size="13" fill="#8E0B20">Prüfungsanmeldung</text><rect x="1138" y="323.2" width="131.1" height="22" rx="11" fill="#FFFFFF" stroke="#E693A1" stroke-width="1"/><text x="1149" y="338.2" font-size="13" fill="#8E0B20">Prüfungszeiträume</text><rect x="1138" y="351.2" width="121.71" height="22" rx="11" fill="#FFFFFF" stroke="#E693A1" stroke-width="1"/><text x="1149" y="366.2" font-size="13" fill="#8E0B20">Vorlesungszeiten</text><text x="1138" y="399.2" font-size="14" fill="#C17984">th-koeln.de</text></a><a href="https://login.th-koeln.de/nidp/saml2/sso" target="_blank" rel="noopener" class="tool"><title>Campus ID Center</title><rect x="1603.31" y="163.04" width="300" height="314.9" rx="16" fill="#F7EDF4" stroke="#DCB1CF" stroke-width="1.4"/><text x="1621.31" y="201.94" font-size="22" fill="#7E2C64" font-weight="700">Campus ID Center</text><text x="1621.31" y="230.49" font-size="14.5" fill="#4B5563">Zentrale Verwaltung der Campus ID:</text><text x="1621.31" y="249.99" font-size="14.5" fill="#4B5563">Passwort, Weiterleitungen und</text><text x="1621.31" y="269.49" font-size="14.5" fill="#4B5563">Sicherheitseinstellungen.</text><rect x="1621.31" y="287.94" width="119.54" height="22" rx="11" fill="#FFFFFF" stroke="#D8A7C9" stroke-width="1"/><text x="1632.31" y="302.94" font-size="13" fill="#7E2C64">Passwort ändern</text><rect x="1621.31" y="315.94" width="139.01" height="22" rx="11" fill="#FFFFFF" stroke="#D8A7C9" stroke-width="1"/><text x="1632.31" y="330.94" font-size="13" fill="#7E2C64">E-Mail-Weiterleitung</text><rect x="1621.31" y="343.94" width="193.98" height="22" rx="11" fill="#FFFFFF" stroke="#D8A7C9" stroke-width="1"/><text x="1632.31" y="358.94" font-size="13" fill="#7E2C64">Gespeicherte Daten einsehen</text><rect x="1621.31" y="371.94" width="231.48" height="22" rx="11" fill="#FFFFFF" stroke="#D8A7C9" stroke-width="1"/><text x="1632.31" y="386.94" font-size="13" fill="#7E2C64">Multi-Faktor-Authentifizierung (MFA)</text><rect x="1621.31" y="409.94" width="99.01" height="22" rx="11" fill="#EFDCE9" stroke="#D39DC2" stroke-width="1"/><circle cx="1633.31" cy="420.94" r="4" fill="#A83B86"/><text x="1644.31" y="424.94" font-size="13" fill="#7E2C64">Campus ID</text><text x="1621.31" y="457.94" font-size="14" fill="#B88BAA">login.th-koeln.de</text></a><a href="https://www.th-koeln.de/mam/downloads/deutsch/hochschule/organisation/standorte/lageplan_campus_gummersbach.pdf" target="_blank" rel="noopener" class="tool"><title>Rechnerpools</title><rect x="1975.9" y="441.78" width="300" height="258.9" rx="16" fill="#FBEDEC" stroke="#E5B0AD" stroke-width="1.4"/><text x="1993.9" y="480.68" font-size="22" fill="#8F2B25" font-weight="700">Rechnerpools</text><text x="1993.9" y="509.23" font-size="14.5" fill="#4B5563">Frei nutzbare PC-Pools auf dem</text><text x="1993.9" y="528.73" font-size="14.5" fill="#4B5563">Campus, z. B. Raum 2.106 – für</text><text x="1993.9" y="548.23" font-size="14.5" fill="#4B5563">Recherche, Übungen und Lernen.</text><rect x="1993.9" y="566.68" width="84.85" height="22" rx="11" fill="#FFFFFF" stroke="#E2A6A3" stroke-width="1"/><text x="2004.9" y="581.68" font-size="13" fill="#8F2B25">Recherche</text><rect x="2084.76" y="566.68" width="62.47" height="22" rx="11" fill="#FFFFFF" stroke="#E2A6A3" stroke-width="1"/><text x="2095.76" y="581.68" font-size="13" fill="#8F2B25">Lernen</text><rect x="1993.9" y="594.68" width="167.22" height="22" rx="11" fill="#FFFFFF" stroke="#E2A6A3" stroke-width="1"/><text x="2004.9" y="609.68" font-size="13" fill="#8F2B25">Software der Hochschule</text><rect x="1993.9" y="632.68" width="99.01" height="22" rx="11" fill="#F3DCDA" stroke="#DE9C98" stroke-width="1"/><circle cx="2005.9" cy="643.68" r="4" fill="#BE3A32"/><text x="2016.9" y="647.68" font-size="13" fill="#8F2B25">Campus ID</text><text x="1993.9" y="680.68" font-size="14" fill="#C18A87">th-koeln.de</text></a><a href="https://mate.gm.h-koeln.de" target="_blank" rel="noopener" class="tool"><title>MATE</title><rect x="2152.42" y="732.58" width="300" height="384.4" rx="16" fill="#FCF1E6" stroke="#E9C3A1" stroke-width="1.4"/><text x="2170.42" y="771.48" font-size="22" fill="#96500F" font-weight="700">MATE</text><text x="2170.42" y="800.03" font-size="14.5" fill="#4B5563">Module, Assessments, Timetables and</text><text x="2170.42" y="819.53" font-size="14.5" fill="#4B5563">Exams. Zentrale Plattform für</text><text x="2170.42" y="839.03" font-size="14.5" fill="#4B5563">Modulbeschreibungen,</text><text x="2170.42" y="858.53" font-size="14.5" fill="#4B5563">Modulhandbücher und Prüfungslisten</text><text x="2170.42" y="878.03" font-size="14.5" fill="#4B5563">aller Studiengänge der Fakultät für</text><text x="2170.42" y="897.53" font-size="14.5" fill="#4B5563">Informatik und Ingenieurwissenschaften</text><text x="2170.42" y="917.03" font-size="14.5" fill="#4B5563">mit taggenauer Raum- und</text><text x="2170.42" y="936.53" font-size="14.5" fill="#4B5563">Semesterplanung.</text><rect x="2170.42" y="954.98" width="95" height="22" rx="11" fill="#FFFFFF" stroke="#E7BC95" stroke-width="1"/><text x="2181.42" y="969.98" font-size="13" fill="#96500F">Stundenplan</text><rect x="2271.41" y="954.98" width="117.37" height="22" rx="11" fill="#FFFFFF" stroke="#E7BC95" stroke-width="1"/><text x="2282.41" y="969.98" font-size="13" fill="#96500F">Prüfungstermine</text><rect x="2170.42" y="982.98" width="122.41" height="22" rx="11" fill="#FFFFFF" stroke="#E7BC95" stroke-width="1"/><text x="2181.42" y="997.98" font-size="13" fill="#96500F">Modulverzeichnis</text><rect x="2170.42" y="1010.98" width="141.22" height="22" rx="11" fill="#FFFFFF" stroke="#E7BC95" stroke-width="1"/><text x="2181.42" y="1025.98" font-size="13" fill="#96500F">Raumbelegungsplan</text><rect x="2170.42" y="1048.98" width="99.01" height="22" rx="11" fill="#F5E4D5" stroke="#E4B48A" stroke-width="1"/><circle cx="2182.42" cy="1059.98" r="4" fill="#C96A14"/><text x="2193.42" y="1063.98" font-size="13" fill="#96500F">Campus ID</text><text x="2170.42" y="1096.98" font-size="14" fill="#C59F7B">mate.gm.h-koeln.de</text></a><a href="https://id.gm.fh-koeln.de/" target="_blank" rel="noopener" class="tool"><title>GM ID Center</title><rect x="2092.42" y="1184.69" width="300" height="230.9" rx="16" fill="#EFEEFA" stroke="#BDBBE7" stroke-width="1.4"/><text x="2110.42" y="1223.59" font-size="22" fill="#433F93" font-weight="700">GM ID Center</text><text x="2110.42" y="1252.14" font-size="14.5" fill="#4B5563">Hier erstellst und verwalten Sie die GM</text><text x="2110.42" y="1271.64" font-size="14.5" fill="#4B5563">ID für campusspezifische Dienste in</text><text x="2110.42" y="1291.14" font-size="14.5" fill="#4B5563">Gummersbach.</text><rect x="2110.42" y="1309.59" width="112.3" height="22" rx="11" fill="#FFFFFF" stroke="#B5B3E4" stroke-width="1"/><text x="2121.42" y="1324.59" font-size="13" fill="#433F93">GM ID erstellen</text><rect x="2228.71" y="1309.59" width="119.54" height="22" rx="11" fill="#FFFFFF" stroke="#B5B3E4" stroke-width="1"/><text x="2239.71" y="1324.59" font-size="13" fill="#433F93">Passwort ändern</text><rect x="2110.42" y="1347.59" width="99.01" height="22" rx="11" fill="#E1E0F4" stroke="#ACAAE2" stroke-width="1"/><circle cx="2122.42" cy="1358.59" r="4" fill="#5A55C4"/><text x="2133.42" y="1362.59" font-size="13" fill="#433F93">Campus ID</text><rect x="2215.43" y="1347.59" width="71.56" height="22" rx="11" fill="#E1E0F4" stroke="#ACAAE2" stroke-width="1"/><circle cx="2227.43" cy="1358.59" r="4" fill="#5A55C4"/><text x="2238.43" y="1362.59" font-size="13" fill="#433F93">GM ID</text><text x="2110.42" y="1395.59" font-size="14" fill="#9895C4">id.gm.fh-koeln.de</text></a><a href="https://cams.th-koeln.de/qisserver/pages/cs/sys/portal/hisinoneStartPage.faces" target="_blank" rel="noopener" class="tool"><title>CAMS</title><rect x="1809.65" y="1481.87" width="300" height="258.9" rx="16" fill="#EAF5EF" stroke="#ABD1BC" stroke-width="1.4"/><text x="1827.65" y="1520.77" font-size="22" fill="#226841" font-weight="700">CAMS</text><text x="1827.65" y="1549.32" font-size="14.5" fill="#4B5563">Selbstbedienungsportal rund um die</text><text x="1827.65" y="1568.82" font-size="14.5" fill="#4B5563">Immatrikulation: Bescheinigungen,</text><text x="1827.65" y="1588.32" font-size="14.5" fill="#4B5563">Beiträge und Anträge.</text><rect x="1827.65" y="1606.77" width="149.91" height="22" rx="11" fill="#FFFFFF" stroke="#A1CBB3" stroke-width="1"/><text x="1838.65" y="1621.77" font-size="13" fill="#226841">Studienbescheinigung</text><rect x="1827.65" y="1634.77" width="105.82" height="22" rx="11" fill="#FFFFFF" stroke="#A1CBB3" stroke-width="1"/><text x="1838.65" y="1649.77" font-size="13" fill="#226841">Studienbeitrag</text><rect x="1939.47" y="1634.77" width="108.71" height="22" rx="11" fill="#FFFFFF" stroke="#A1CBB3" stroke-width="1"/><text x="1950.47" y="1649.77" font-size="13" fill="#226841">Anträge stellen</text><rect x="1827.65" y="1672.77" width="99.01" height="22" rx="11" fill="#D9EAE1" stroke="#96C5AB" stroke-width="1"/><circle cx="1839.65" cy="1683.77" r="4" fill="#2E8B57"/><text x="1850.65" y="1687.77" font-size="13" fill="#226841">Campus ID</text><text x="1827.65" y="1720.77" font-size="14" fill="#85AC96">cams.th-koeln.de</text></a><a href="https://psso.th-koeln.de/qisserver/rds?state=user&amp;type=0" target="_blank" rel="noopener" class="tool"><title>PSSO</title><rect x="1368.89" y="1657.59" width="300" height="258.9" rx="16" fill="#E7F3F7" stroke="#9FCBD6" stroke-width="1.4"/><text x="1386.89" y="1696.49" font-size="22" fill="#0A5D73" font-weight="700">PSSO</text><text x="1386.89" y="1725.04" font-size="14.5" fill="#4B5563">Prüfungs- und Studierendenservice</text><text x="1386.89" y="1744.54" font-size="14.5" fill="#4B5563">Online – Selbstbedienung rund um</text><text x="1386.89" y="1764.04" font-size="14.5" fill="#4B5563">Prüfungsangelegenheiten.</text><rect x="1386.89" y="1782.49" width="138.34" height="22" rx="11" fill="#FFFFFF" stroke="#93C4D1" stroke-width="1"/><text x="1397.89" y="1797.49" font-size="13" fill="#0A5D73">Prüfungsanmeldung</text><rect x="1531.23" y="1782.49" width="97.87" height="22" rx="11" fill="#FFFFFF" stroke="#93C4D1" stroke-width="1"/><text x="1542.23" y="1797.49" font-size="13" fill="#0A5D73">Notenspiegel</text><rect x="1386.89" y="1810.49" width="137.61" height="22" rx="11" fill="#FFFFFF" stroke="#93C4D1" stroke-width="1"/><text x="1397.89" y="1825.49" font-size="13" fill="#0A5D73">Prüfungsergebnisse</text><rect x="1386.89" y="1848.49" width="99.01" height="22" rx="11" fill="#D4E7ED" stroke="#86BECC" stroke-width="1"/><circle cx="1398.89" cy="1859.49" r="4" fill="#0E7C99"/><text x="1409.89" y="1863.49" font-size="13" fill="#0A5D73">Campus ID</text><text x="1386.89" y="1896.49" font-size="14" fill="#78A6B2">psso.th-koeln.de</text></a><a href="https://webmail.th-koeln.de/login.php" target="_blank" rel="noopener" class="tool"><title>Webmail</title><rect x="871.11" y="1667.34" width="300" height="239.4" rx="16" fill="#F5ECF4" stroke="#D4B3D1" stroke-width="1.4"/><text x="889.11" y="1706.24" font-size="22" fill="#6E3069" font-weight="700">Webmail</text><text x="889.11" y="1734.79" font-size="14.5" fill="#4B5563">Zugang zur persönlichen</text><text x="889.11" y="1754.29" font-size="14.5" fill="#4B5563">Hochschul-E-Mail-Adresse.</text><rect x="889.11" y="1772.74" width="161.44" height="22" rx="11" fill="#FFFFFF" stroke="#CEA9CB" stroke-width="1"/><text x="900.11" y="1787.74" font-size="13" fill="#6E3069">Hochschulinformationen</text><rect x="889.11" y="1800.74" width="169.41" height="22" rx="11" fill="#FFFFFF" stroke="#CEA9CB" stroke-width="1"/><text x="900.11" y="1815.74" font-size="13" fill="#6E3069">Austausch mit Lehrenden</text><rect x="889.11" y="1838.74" width="99.01" height="22" rx="11" fill="#ECDDEA" stroke="#C9A0C6" stroke-width="1"/><circle cx="901.11" cy="1849.74" r="4" fill="#93408C"/><text x="912.11" y="1853.74" font-size="13" fill="#6E3069">Campus ID</text><text x="889.11" y="1886.74" font-size="14" fill="#AF8DAC">webmail.th-koeln.de</text></a><a href="https://th-koeln.sciebo.de/" target="_blank" rel="noopener" class="tool"><title>sciebo</title><rect x="430.35" y="1472.12" width="300" height="278.4" rx="16" fill="#FAECEF" stroke="#E3B0BC" stroke-width="1.4"/><text x="448.35" y="1511.02" font-size="22" fill="#8A2C41" font-weight="700">sciebo</text><text x="448.35" y="1539.57" font-size="14.5" fill="#4B5563">Nicht-kommerzieller Cloud-Speicher für</text><text x="448.35" y="1559.07" font-size="14.5" fill="#4B5563">Forschung, Studium und Lehre: Sync</text><text x="448.35" y="1578.57" font-size="14.5" fill="#4B5563">über Geräte hinweg und gemeinsames</text><text x="448.35" y="1598.07" font-size="14.5" fill="#4B5563">Arbeiten an Dokumenten.</text><rect x="448.35" y="1616.52" width="116.65" height="22" rx="11" fill="#FFFFFF" stroke="#DFA6B3" stroke-width="1"/><text x="459.35" y="1631.52" font-size="13" fill="#8A2C41">Daten speichern</text><rect x="448.35" y="1644.52" width="136.88" height="22" rx="11" fill="#FFFFFF" stroke="#DFA6B3" stroke-width="1"/><text x="459.35" y="1659.52" font-size="13" fill="#8A2C41">Praktikumsabgaben</text><rect x="591.23" y="1644.52" width="101.48" height="22" rx="11" fill="#FFFFFF" stroke="#DFA6B3" stroke-width="1"/><text x="602.23" y="1659.52" font-size="13" fill="#8A2C41">Sync &amp; Share</text><rect x="448.35" y="1682.52" width="99.01" height="22" rx="11" fill="#F2DCE1" stroke="#DC9CAB" stroke-width="1"/><circle cx="460.35" cy="1693.52" r="4" fill="#B83A57"/><text x="471.35" y="1697.52" font-size="13" fill="#8A2C41">Campus ID</text><text x="448.35" y="1730.52" font-size="14" fill="#BF8B96">th-koeln.sciebo.de</text></a><a href="https://praktikum.gm.fh-koeln.de" target="_blank" rel="noopener" class="tool"><title>Praktikumstool</title><rect x="147.58" y="1160.94" width="300" height="278.4" rx="16" fill="#FBF2E4" stroke="#E3C8A1" stroke-width="1.4"/><text x="165.58" y="1199.84" font-size="22" fill="#8A570F" font-weight="700">Praktikumstool</text><text x="165.58" y="1228.39" font-size="14.5" fill="#4B5563">In einigen Fächern ist das Praktikum</text><text x="165.58" y="1247.89" font-size="14.5" fill="#4B5563">Voraussetzung für die Klausurzulassung</text><text x="165.58" y="1267.39" font-size="14.5" fill="#4B5563">– das Praktikumstool organisiert</text><text x="165.58" y="1286.89" font-size="14.5" fill="#4B5563">Anmeldungen und Nachweise.</text><rect x="165.58" y="1305.34" width="149.15" height="22" rx="11" fill="#FFFFFF" stroke="#DFC195" stroke-width="1"/><text x="176.58" y="1320.34" font-size="13" fill="#8A570F">Anmeldung Praktikum</text><rect x="165.58" y="1333.34" width="199.03" height="22" rx="11" fill="#FFFFFF" stroke="#DFC195" stroke-width="1"/><text x="176.58" y="1348.34" font-size="13" fill="#8A570F">Dokumentation des Bestehens</text><rect x="165.58" y="1371.34" width="71.56" height="22" rx="11" fill="#F2E6D5" stroke="#DCBA8A" stroke-width="1"/><circle cx="177.58" cy="1382.34" r="4" fill="#B87514"/><text x="188.58" y="1386.34" font-size="13" fill="#8A570F">GM ID</text><text x="165.58" y="1419.34" font-size="14" fill="#BFA37B">praktikum.gm.fh-koeln.de</text></a><a href="https://www.th-koeln.de/hochschule/eduroam_25369.php" target="_blank" rel="noopener" class="tool"><title>eduroam</title><rect x="87.58" y="795.33" width="300" height="258.9" rx="16" fill="#EAF0FB" stroke="#ACBFE7" stroke-width="1.4"/><text x="105.58" y="834.23" font-size="22" fill="#234793" font-weight="700">eduroam</text><text x="105.58" y="862.78" font-size="14.5" fill="#4B5563">Education Roaming: WLAN am Campus</text><text x="105.58" y="882.28" font-size="14.5" fill="#4B5563">und an tausenden Hochschulen weltweit</text><text x="105.58" y="901.78" font-size="14.5" fill="#4B5563">mit denselben Zugangsdaten.</text><rect x="105.58" y="920.23" width="133.24" height="22" rx="11" fill="#FFFFFF" stroke="#A1B7E4" stroke-width="1"/><text x="116.58" y="935.23" font-size="13" fill="#234793">WLAN am Campus</text><rect x="105.58" y="948.23" width="207.69" height="22" rx="11" fill="#FFFFFF" stroke="#A1B7E4" stroke-width="1"/><text x="116.58" y="963.23" font-size="13" fill="#234793">WLAN an anderen Hochschulen</text><rect x="105.58" y="986.23" width="99.01" height="22" rx="11" fill="#DAE2F4" stroke="#97AFE2" stroke-width="1"/><circle cx="117.58" cy="997.23" r="4" fill="#2F5FC4"/><text x="128.58" y="1001.23" font-size="13" fill="#234793">Campus ID</text><text x="105.58" y="1034.23" font-size="14" fill="#869AC4">th-koeln.de</text></a><a href="https://www.th-koeln.de/hochschule/vpn---virtual-private-network_26952.php" target="_blank" rel="noopener" class="tool"><title>VPN</title><rect x="264.1" y="427.78" width="300" height="286.9" rx="16" fill="#EDF5EC" stroke="#B1CCB0" stroke-width="1.4"/><text x="282.1" y="466.68" font-size="22" fill="#2E5F2B" font-weight="700">VPN</text><text x="282.1" y="495.23" font-size="14.5" fill="#4B5563">Über eine VPN-Verbindung nutzt Sie von</text><text x="282.1" y="514.73" font-size="14.5" fill="#4B5563">außerhalb alle Dienste, die nur im</text><text x="282.1" y="534.23" font-size="14.5" fill="#4B5563">Hochschulnetz verfügbar sind.</text><rect x="282.1" y="552.68" width="161.41" height="22" rx="11" fill="#FFFFFF" stroke="#A8C5A6" stroke-width="1"/><text x="293.1" y="567.68" font-size="13" fill="#2E5F2B">Tunnel ins TH-Netzwerk</text><rect x="282.1" y="580.68" width="145.55" height="22" rx="11" fill="#FFFFFF" stroke="#A8C5A6" stroke-width="1"/><text x="293.1" y="595.68" font-size="13" fill="#2E5F2B">Zugriff von außerhalb</text><rect x="282.1" y="608.68" width="172.28" height="22" rx="11" fill="#FFFFFF" stroke="#A8C5A6" stroke-width="1"/><text x="293.1" y="623.68" font-size="13" fill="#2E5F2B">Lizenzen &amp; E-Ressourcen</text><rect x="282.1" y="646.68" width="99.01" height="22" rx="11" fill="#DCE8DC" stroke="#9EBF9C" stroke-width="1"/><circle cx="294.1" cy="657.68" r="4" fill="#3D7F3A"/><text x="305.1" y="661.68" font-size="13" fill="#2E5F2B">Campus ID</text><text x="282.1" y="694.68" font-size="14" fill="#8CA78A">th-koeln.de</text></a><a href="https://ilu.th-koeln.de/" target="_blank" rel="noopener" class="tool"><title>ILU</title><rect x="636.69" y="200.79" width="300" height="239.4" rx="16" fill="#E7F4F4" stroke="#9FD1D1" stroke-width="1.4"/><text x="654.69" y="239.69" font-size="22" fill="#0B6869" font-weight="700">ILU</text><text x="654.69" y="268.24" font-size="14.5" fill="#4B5563">Lernplattform der TH Köln – Materialien,</text><text x="654.69" y="287.74" font-size="14.5" fill="#4B5563">Kurse und Zusammenarbeit.</text><rect x="654.69" y="306.19" width="95.7" height="22" rx="11" fill="#FFFFFF" stroke="#93CBCC" stroke-width="1"/><text x="665.69" y="321.19" font-size="13" fill="#0B6869">Modulinhalte</text><rect x="756.38" y="306.19" width="105.1" height="22" rx="11" fill="#FFFFFF" stroke="#93CBCC" stroke-width="1"/><text x="767.38" y="321.19" font-size="13" fill="#0B6869">Gruppenarbeit</text><rect x="654.69" y="334.19" width="121.72" height="22" rx="11" fill="#FFFFFF" stroke="#93CBCC" stroke-width="1"/><text x="665.69" y="349.19" font-size="13" fill="#0B6869">Abgaben &amp; Tests</text><rect x="654.69" y="372.19" width="99.01" height="22" rx="11" fill="#D4EAEA" stroke="#87C5C6" stroke-width="1"/><circle cx="666.69" cy="383.19" r="4" fill="#0F8B8D"/><text x="677.69" y="387.19" font-size="13" fill="#0B6869">Campus ID</text><text x="654.69" y="420.19" font-size="14" fill="#79ACAC">ilu.th-koeln.de</text></a></g><g class="nodes"><a href="https://www.th-koeln.de/informatik-und-ingenieurwissenschaften/informatik-und-ingenieurwissenschaften/termine-und-fristen_19440.php" target="_blank" rel="noopener" class="node"><title>Fristen &amp; Termine</title><circle cx="1270" cy="510" r="68" fill="#C8102E"/><circle cx="1270" cy="510" r="77" fill="none" stroke="#C8102E" stroke-width="3.5"/><text x="1270" y="504.59" font-size="23" fill="#FFFFFF" font-weight="700" text-anchor="middle">Fristen &amp;</text><text x="1270" y="531.04" font-size="23" fill="#FFFFFF" font-weight="700" text-anchor="middle">Termine</text><circle cx="1318.96" cy="461.04" r="20" fill="#FFFFFF"/><circle cx="1318.96" cy="461.04" r="16" fill="#8E0B20"/><text x="1318.96" y="469.04" font-size="24" fill="#FFFFFF" font-weight="700" text-anchor="middle">!</text></a><a href="https://login.th-koeln.de/nidp/saml2/sso" target="_blank" rel="noopener" class="node"><title>Campus ID Center</title><circle cx="1572.07" cy="568.42" r="58" fill="#A83B86"/><text x="1572.07" y="563.95" font-size="19" fill="#FFFFFF" font-weight="700" text-anchor="middle">Campus</text><text x="1572.07" y="585.8" font-size="19" fill="#FFFFFF" font-weight="700" text-anchor="middle">ID Center</text></a><a href="https://www.th-koeln.de/mam/downloads/deutsch/hochschule/organisation/standorte/lageplan_campus_gummersbach.pdf" target="_blank" rel="noopener" class="node"><title>Rechnerpools</title><circle cx="1804.94" cy="730.29" r="58" fill="#BE3A32"/><text x="1804.94" y="735.05" font-size="14" fill="#FFFFFF" font-weight="700" text-anchor="middle">Rechnerpools</text></a><a href="https://mate.gm.h-koeln.de" target="_blank" rel="noopener" class="node"><title>MATE</title><circle cx="1915.26" cy="958.53" r="58" fill="#C96A14"/><text x="1915.26" y="966.69" font-size="24" fill="#FFFFFF" font-weight="700" text-anchor="middle">MATE</text></a><a href="https://id.gm.fh-koeln.de/" target="_blank" rel="noopener" class="node"><title>GM ID Center</title><circle cx="1877.76" cy="1200.85" r="58" fill="#5A55C4"/><text x="1877.76" y="1195.21" font-size="24" fill="#FFFFFF" font-weight="700" text-anchor="middle">GM ID</text><text x="1877.76" y="1222.81" font-size="24" fill="#FFFFFF" font-weight="700" text-anchor="middle">Center</text></a><a href="https://cams.th-koeln.de/qisserver/pages/cs/sys/portal/hisinoneStartPage.faces" target="_blank" rel="noopener" class="node"><title>CAMS</title><circle cx="1701.03" cy="1401.74" r="58" fill="#2E8B57"/><text x="1701.03" y="1409.9" font-size="24" fill="#FFFFFF" font-weight="700" text-anchor="middle">CAMS</text></a><a href="https://psso.th-koeln.de/qisserver/rds?state=user&amp;type=0" target="_blank" rel="noopener" class="node"><title>PSSO</title><circle cx="1425.56" cy="1515.18" r="58" fill="#0E7C99"/><text x="1425.56" y="1523.34" font-size="24" fill="#FFFFFF" font-weight="700" text-anchor="middle">PSSO</text></a><a href="https://webmail.th-koeln.de/login.php" target="_blank" rel="noopener" class="node"><title>Webmail</title><circle cx="1114.44" cy="1515.18" r="58" fill="#93408C"/><text x="1114.44" y="1522.66" font-size="22" fill="#FFFFFF" font-weight="700" text-anchor="middle">Webmail</text></a><a href="https://th-koeln.sciebo.de/" target="_blank" rel="noopener" class="node"><title>sciebo</title><circle cx="838.97" cy="1401.74" r="58" fill="#B83A57"/><text x="838.97" y="1409.9" font-size="24" fill="#FFFFFF" font-weight="700" text-anchor="middle">sciebo</text></a><a href="https://praktikum.gm.fh-koeln.de" target="_blank" rel="noopener" class="node"><title>Praktikumstool</title><circle cx="662.24" cy="1200.85" r="58" fill="#B87514"/><text x="662.24" y="1205.27" font-size="13" fill="#FFFFFF" font-weight="700" text-anchor="middle">Praktikumstool</text></a><a href="https://www.th-koeln.de/hochschule/eduroam_25369.php" target="_blank" rel="noopener" class="node"><title>eduroam</title><circle cx="624.74" cy="958.53" r="58" fill="#2F5FC4"/><text x="624.74" y="965.67" font-size="21" fill="#FFFFFF" font-weight="700" text-anchor="middle">eduroam</text></a><a href="https://www.th-koeln.de/hochschule/vpn---virtual-private-network_26952.php" target="_blank" rel="noopener" class="node"><title>VPN</title><circle cx="735.06" cy="730.29" r="58" fill="#3D7F3A"/><text x="735.06" y="738.45" font-size="24" fill="#FFFFFF" font-weight="700" text-anchor="middle">VPN</text></a><a href="https://ilu.th-koeln.de/" target="_blank" rel="noopener" class="node"><title>ILU</title><circle cx="967.93" cy="568.42" r="58" fill="#0F8B8D"/><text x="967.93" y="576.58" font-size="24" fill="#FFFFFF" font-weight="700" text-anchor="middle">ILU</text></a></g><g class="labels"><text x="1260.5" y="728.6" font-size="15" fill="#8E0B20" font-weight="700" text-anchor="middle" transform="rotate(-90 1260.5 728.6)" stroke="#FFFFFF" stroke-width="5" stroke-linejoin="round" paint-order="stroke">Bis wann muss ich mich zur</text><text x="1279.5" y="728.6" font-size="15" fill="#8E0B20" font-weight="700" text-anchor="middle" transform="rotate(-90 1279.5 728.6)" stroke="#FFFFFF" stroke-width="5" stroke-linejoin="round" paint-order="stroke">Prüfung anmelden?</text><text x="1446.89" y="760.66" font-size="15" fill="#4B5563" text-anchor="middle" transform="rotate(-56.22 1446.89 760.66)" stroke="#FFFFFF" stroke-width="5" stroke-linejoin="round" paint-order="stroke">Wo kann ich meine Campus ID verwalten?</text><text x="1578.36" y="858.1" font-size="15" fill="#4B5563" text-anchor="middle" transform="rotate(-28.44 1578.36 858.1)" stroke="#FFFFFF" stroke-width="5" stroke-linejoin="round" paint-order="stroke">Wo kann ich am Campus der TH PCs nutzen?</text><text x="1638.02" y="980.5" font-size="15" fill="#4B5563" text-anchor="middle" transform="rotate(-5.44 1638.02 980.5)" stroke="#FFFFFF" stroke-width="5" stroke-linejoin="round" paint-order="stroke">Wo finde ich meinen Stundenplan, Modulinformationen,</text><text x="1639.82" y="999.41" font-size="15" fill="#4B5563" text-anchor="middle" transform="rotate(-5.44 1639.82 999.41)" stroke="#FFFFFF" stroke-width="5" stroke-linejoin="round" paint-order="stroke">Prüfungsplan?</text><text x="1618.45" y="1128.79" font-size="15" fill="#4B5563" text-anchor="middle" transform="rotate(16.57 1618.45 1128.79)" stroke="#FFFFFF" stroke-width="5" stroke-linejoin="round" paint-order="stroke">Wo erstelle ich meine GM ID?</text><text x="1520.33" y="1246.8" font-size="15" fill="#4B5563" text-anchor="middle" transform="rotate(41.53 1520.33 1246.8)" stroke="#FFFFFF" stroke-width="5" stroke-linejoin="round" paint-order="stroke">Wo verwalte ich meine Einschreibung?</text><text x="1361.71" y="1317.05" font-size="15" fill="#4B5563" text-anchor="middle" transform="rotate(72.56 1361.71 1317.05)" stroke="#FFFFFF" stroke-width="5" stroke-linejoin="round" paint-order="stroke">Wo melde ich mich zur Klausur an?</text><text x="1169.22" y="1314.21" font-size="15" fill="#4B5563" text-anchor="middle" transform="rotate(287.44 1169.22 1314.21)" stroke="#FFFFFF" stroke-width="5" stroke-linejoin="round" paint-order="stroke">Wie erhalte ich E-Mails und wo kann ich</text><text x="1187.35" y="1319.9" font-size="15" fill="#4B5563" text-anchor="middle" transform="rotate(287.44 1187.35 1319.9)" stroke="#FFFFFF" stroke-width="5" stroke-linejoin="round" paint-order="stroke">selbst welche schreiben?</text><text x="1019.67" y="1246.8" font-size="15" fill="#4B5563" text-anchor="middle" transform="rotate(318.47 1019.67 1246.8)" stroke="#FFFFFF" stroke-width="5" stroke-linejoin="round" paint-order="stroke">Wie transferiere ich große Dateien?</text><text x="921.55" y="1128.79" font-size="15" fill="#4B5563" text-anchor="middle" transform="rotate(343.43 921.55 1128.79)" stroke="#FFFFFF" stroke-width="5" stroke-linejoin="round" paint-order="stroke">Wie wird das Praktikum verwaltet?</text><text x="901.08" y="989.95" font-size="15" fill="#4B5563" text-anchor="middle" transform="rotate(5.44 901.08 989.95)" stroke="#FFFFFF" stroke-width="5" stroke-linejoin="round" paint-order="stroke">Wie komme ich ins WLAN?</text><text x="961.64" y="858.1" font-size="15" fill="#4B5563" text-anchor="middle" transform="rotate(28.44 961.64 858.1)" stroke="#FFFFFF" stroke-width="5" stroke-linejoin="round" paint-order="stroke">Wie komme ich von zuhause ins TH-Netz?</text><text x="1093.11" y="760.66" font-size="15" fill="#4B5563" text-anchor="middle" transform="rotate(56.22 1093.11 760.66)" stroke="#FFFFFF" stroke-width="5" stroke-linejoin="round" paint-order="stroke">Wo finde ich die Inhalte zum Studium?</text></g><g class="hub"><circle cx="1270" cy="1020" r="157" fill="#ECEDEE"/><circle cx="1270" cy="1020" r="145" fill="#111827"/><text x="1270" y="1000.64" font-size="22" fill="#FFFFFF" font-weight="700" text-anchor="middle">Tools für die</text><text x="1270" y="1027.48" font-size="22" fill="#FFFFFF" font-weight="700" text-anchor="middle">TH Köln</text><text x="1270" y="1054.32" font-size="22" fill="#FFFFFF" font-weight="700" text-anchor="middle">Campus Gummersbach</text></g><g class="header"><text x="48" y="92" font-size="46" fill="#111827" font-weight="700">Studi-Tools</text><rect x="50" y="108" width="64" height="5" rx="2.5" fill="#C8102E"/><text x="48" y="144" font-size="19" fill="#6B7280">Die wichtigsten Plattformen der TH Köln – Campus Gummersbach</text><text x="2492" y="92" font-size="19" fill="#111827" font-weight="700" text-anchor="end">TH Köln · Campus Gummersbach</text></g><g class="box"><rect x="48" y="1782" width="470" height="210" rx="16" fill="#FFFFFF" stroke="#E5E7EB" stroke-width="1.4"/><text x="68" y="1822" font-size="20" fill="#111827" font-weight="700">Zugänge</text><rect x="68" y="1841" width="99.01" height="22" rx="11" fill="#FBEAEC" stroke="#E99FAB" stroke-width="1"/><circle cx="80" cy="1852" r="4" fill="#C8102E"/><text x="91" y="1856" font-size="13" fill="#AA0E27">Campus ID</text><text x="68" y="1881.05" font-size="14.5" fill="#4B5563">Jede*r Studierende bekommt eine Campus ID. Sie erhalten sie per</text><text x="68" y="1900.55" font-size="14.5" fill="#4B5563">Mail nach der Immatrikulation.</text><rect x="68" y="1922" width="71.56" height="22" rx="11" fill="#EAF0F9" stroke="#A5B8D7" stroke-width="1"/><circle cx="80" cy="1933" r="4" fill="#1F4E9C"/><text x="91" y="1937" font-size="13" fill="#1A4285">GM ID</text><text x="68" y="1962.05" font-size="14.5" fill="#4B5563">Studierende am Campus Gummersbach erstellen mit der Campus</text><text x="68" y="1981.55" font-size="14.5" fill="#4B5563">ID zusätzlich eine GM ID für campusspezifische Angebote.</text></g><g class="box"><rect x="2022" y="1762" width="470" height="230" rx="16" fill="#FFFFFF" stroke="#E5E7EB" stroke-width="1.4"/><text x="2042" y="1802" font-size="20" fill="#111827" font-weight="700">Legende</text><circle cx="2064" cy="1845" r="12" fill="#0E7C99"/><text x="2092" y="1850" font-size="14.5" fill="#4B5563">Tool – klickbar, führt direkt zur Plattform</text><line x1="2050" y1="1875" x2="2078" y2="1875" stroke="#7AB7C7" stroke-width="3" stroke-linecap="round"/><text x="2092" y="1880" font-size="14.5" fill="#4B5563">Frage, die das Tool beantwortet</text><rect x="2048" y="1894" width="32" height="22" rx="11" fill="#FFFFFF" stroke="#93C4D1" stroke-width="1"/><text x="2092" y="1910" font-size="14.5" fill="#4B5563">Funktionen des Tools</text><rect x="2048" y="1924" width="32" height="22" rx="11" fill="#D4E7ED" stroke="#86BECC" stroke-width="1"/><circle cx="2059" cy="1935" r="4" fill="#0E7C99"/><text x="2092" y="1940" font-size="14.5" fill="#4B5563">Zugang, den Sie dafür brauchen</text><circle cx="2064" cy="1965" r="10.5" fill="#C8102E"/><circle cx="2064" cy="1965" r="14.5" fill="none" stroke="#C8102E" stroke-width="2"/><text x="2064" y="1971" font-size="16" fill="#FFFFFF" font-weight="700" text-anchor="middle">!</text><text x="2092" y="1970" font-size="14.5" fill="#4B5563">Fristgebunden – hier hängt die Prüfungszulassung dran</text></g></svg>